<!DOCTYPE svg PUBLIC "-//W3C//DTD SVG 1.1//EN" "http://www.w3.org/Graphics/SVG/1.1/DTD/svg11.dtd">
<!-- Uploaded to: SVG Repo, www.svgrepo.com, Transformed by: SVG Repo Mixer Tools -->
<svg width="800px" height="800px" viewBox="0 -0.66 117.77 117.77" xmlns="http://www.w3.org/2000/svg" fill="#000000">
<g id="SVGRepo_bgCarrier" stroke-width="0"/>
<g id="SVGRepo_tracerCarrier" stroke-linecap="round" stroke-linejoin="round"/>
<g id="SVGRepo_iconCarrier"> <defs> <style>.cls-1{fill:#00000000;}</style> </defs> <g id="Layer_2" data-name="Layer 2"> <g id="Layer_1-2" data-name="Layer 1"> <path d="M66.19,20.18c2.39-.72,4.5-1.52,6.69-2C76.22,17.5,79.61,17,83,16.46c15.42-2.34,33.48,14.25,34.55,30.4.64,9.61,0,18.9-3.33,27.91a42.25,42.25,0,0,1-13.78,18.29,107.48,107.48,0,0,1-28.12,16.3c-5.29,2-10.9,3.31-16.38,4.84-1.93.54-4,.57-5.85,1.29-5.13,2-9.56.64-13.67-2.45-7.61-5.7-14.49-12.07-18.9-20.73C14,85.42,10.12,78.73,6.81,71.76,3,63.67,1.35,54.92.47,46.05.13,42.64.07,39.19,0,35.76-.43,11.79,21.69-2.7,40.28.42A31.52,31.52,0,0,1,61.05,13C62.75,15.26,64.35,17.59,66.19,20.18ZM10.5,40.44c.43,4.8.42,7.69,1,10.48,3,14.83,9,28.33,18.67,40,3.08,3.69,7.07,6.61,10.58,9.95,3.74,3.57,7.85,3.81,12.69,2.42A116.39,116.39,0,0,0,96.26,80.46c3.28-2.74,6.5-5.77,8-9.91C107.13,63,108.91,55,107.11,47c-2-8.84-6.89-15.91-16.21-18.15-6-1.46-12.38-2.2-18.46.56a56.64,56.64,0,0,1-5.59,2.17c-2.66.9-4.39.45-6-1.83-1.48-2.1-2.56-4.46-4-6.58-5.93-8.66-13.6-13-25.93-11.08-10.36,1.62-17.79,9.44-19.62,20.07C10.73,35.51,10.64,39,10.5,40.44Z"/> <path class="cls-1" d="M10.5,40.44c.14-1.49.23-4.93.81-8.28,1.83-10.63,9.26-18.45,19.62-20.07,12.33-1.93,20,2.42,25.93,11.08,1.45,2.12,2.53,4.48,4,6.58,1.59,2.28,3.32,2.73,6,1.83a56.64,56.64,0,0,0,5.59-2.17c6.08-2.76,12.42-2,18.46-.56,9.32,2.24,14.22,9.31,16.21,18.15,1.8,8,0,16-2.81,23.55-1.54,4.14-4.76,7.17-8,9.91a116.39,116.39,0,0,1-42.85,22.81c-4.84,1.39-8.95,1.15-12.69-2.42-3.51-3.34-7.5-6.26-10.58-9.95-9.71-11.65-15.7-25.15-18.67-40C10.92,48.13,10.93,45.24,10.5,40.44Z"/> </g> </g> </g>
</svg>