<!DOCTYPE svg PUBLIC "-//W3C//DTD SVG 1.1//EN" "http://www.w3.org/Graphics/SVG/1.1/DTD/svg11.dtd">
<!-- Uploaded to: SVG Repo, www.svgrepo.com, Transformed by: SVG Repo Mixer Tools -->
<svg width="800px" height="800px" viewBox="-5.79 0 138.71 138.71" xmlns="http://www.w3.org/2000/svg" fill="#000000">
<g id="SVGRepo_bgCarrier" stroke-width="0"/>
<g id="SVGRepo_tracerCarrier" stroke-linecap="round" stroke-linejoin="round"/>
<g id="SVGRepo_iconCarrier"> <defs> <style>.cls-1{fill:rgba(0, 0, 0, 0);}</style> </defs> <g id="Layer_2" data-name="Layer 2"> <g id="Layer_1-2" data-name="Layer 1"> <path d="M71.18,21.78c6.74-1.17,12.3-2.43,17.93-3.05,9.6-1.06,18,1.55,25,8.67,12.63,13,15.9,28,10.75,45.12-2.84,9.43-9.94,15.27-17.89,20-8.34,5-17.13,9.22-25.63,14-11.7,6.52-21.56,15-28.41,26.76-1.35,2.31-3.89,3.93-5.48,5.47-4-.28-6.3-1.43-7-4.83-.43-1.94-1.2-3.81-1.7-5.74-2.21-8.39-6.23-15.92-10.76-23.25-6.78-10.94-14.12-21.53-20-33A71.89,71.89,0,0,1,0,41.31c-.37-12.09,3.59-23,12.76-31.7,10.52-10,33.5-14.7,49-1.49,3.17,2.7,5.26,6.69,7.72,10.16A20.55,20.55,0,0,1,71.18,21.78ZM47.47,118.4a9.63,9.63,0,0,0,2.13-1.48C58.66,105.84,70.18,98.1,82.9,91.8c7.67-3.8,15.17-8,22.44-12.56,11.32-7,13.55-16.93,10.85-29.07A36.87,36.87,0,0,0,111.75,40c-3.7-6.36-9.39-9.78-16.79-10.42-7.59-.65-14.77.31-21.56,4.11-3.79,2.11-7.32.63-9.13-3.27a15.5,15.5,0,0,1-1.08-3.25C61.68,20.26,56.8,16.61,50.71,14.1a31,31,0,0,0-16.86-1.91,19.2,19.2,0,0,0-7.89,3c-8.85,6.3-14.17,14.86-14.69,25.89A50.51,50.51,0,0,0,18,69.1c3.42,6,7,11.81,10.69,17.6,6.16,9.65,12.63,19.09,17.1,29.71A9.43,9.43,0,0,0,47.47,118.4Z"/> <path class="cls-1" d="M47.47,118.4a9.43,9.43,0,0,1-1.65-2c-4.47-10.62-10.94-20.06-17.1-29.71C25,80.91,21.45,75.05,18,69.1a50.51,50.51,0,0,1-6.76-28c.52-11,5.84-19.59,14.69-25.89a19.2,19.2,0,0,1,7.89-3A31,31,0,0,1,50.71,14.1c6.09,2.51,11,6.16,12.48,13.07a15.5,15.5,0,0,0,1.08,3.25c1.81,3.9,5.34,5.38,9.13,3.27,6.79-3.8,14-4.76,21.56-4.11,7.4.64,13.09,4.06,16.79,10.42a36.87,36.87,0,0,1,4.44,10.17c2.7,12.14.47,22-10.85,29.07C98.07,83.77,90.57,88,82.9,91.8c-12.72,6.3-24.24,14-33.3,25.12A9.63,9.63,0,0,1,47.47,118.4Z"/> </g> </g> </g>
</svg>