<?xml version="1.0" encoding="iso-8859-1"?>

<!DOCTYPE svg PUBLIC "-//W3C//DTD SVG 1.1//EN" "http://www.w3.org/Graphics/SVG/1.1/DTD/svg11.dtd">
<!-- Uploaded to: SVG Repo, www.svgrepo.com, Generator: SVG Repo Mixer Tools -->
<svg height="800px" width="800px" version="1.1" id="_x34_" xmlns="http://www.w3.org/2000/svg" xmlns:xlink="http://www.w3.org/1999/xlink" 
	 viewBox="0 0 512 512"  xml:space="preserve">
<g>
	<path style="fill:#9D897E;" d="M253.424,496.554c0,8.524-6.911,15.446-15.452,15.446h-86.287c-8.541,0-15.452-6.922-15.452-15.446
		v-98.102c0-8.535,6.911-15.451,15.452-15.451h86.287c8.541,0,15.452,6.916,15.452,15.451V496.554z"/>
	<g>
		<path style="fill:#EFE081;" d="M194.089,2.591c1.526-3.455,4.021-3.455,5.547,0l5.889,13.357c1.526,3.461,5.843,5.956,9.597,5.547
			l14.518-1.579c3.754-0.406,5.002,1.753,2.774,4.799l-8.622,11.788c-2.24,3.043-2.24,8.033,0,11.085l8.622,11.782
			c2.228,3.046,0.98,5.21-2.774,4.796l-14.518-1.575c-3.754-0.409-8.071,2.083-9.597,5.541l-5.889,13.363
			c-1.526,3.456-4.021,3.456-5.547,0l-5.89-13.363c-1.526-3.458-5.843-5.951-9.603-5.541l-14.518,1.575
			c-3.749,0.415-5.002-1.749-2.768-4.796l8.623-11.782c2.233-3.052,2.233-8.042,0-11.085l-8.623-11.788
			c-2.234-3.046-0.981-5.205,2.768-4.799l14.518,1.579c3.76,0.409,8.076-2.086,9.603-5.547L194.089,2.591z"/>
	</g>
	<path style="fill:#917D73;" d="M253.424,496.554v-62.927l-50.626-50.626h-15.695l-49.971,49.964L216.173,512h21.799
		C246.513,512,253.424,505.078,253.424,496.554z"/>
	<path style="fill:#5AB182;" d="M347.864,362.971c-2.994-3.22-4.474-7.573-4.067-11.954c0.406-4.381,2.657-8.384,6.197-11.001
		l13.288-9.821c3.643-2.692,5.919-6.841,6.232-11.363c0.308-4.512-1.369-8.939-4.607-12.104l-56.823-55.584
		c-3.348-3.282-5.031-7.906-4.572-12.577c0.47-4.662,3.023-8.866,6.957-11.419l3.4-2.214c4.009-2.608,6.591-6.925,6.98-11.694
		c0.388-4.773-1.457-9.455-4.996-12.681l-108.354-98.763c-5.895-5.376-14.912-5.376-20.807,0L78.336,200.558
		c-3.536,3.226-5.381,7.908-4.99,12.681c0.383,4.769,2.968,9.087,6.974,11.694l3.403,2.214c3.931,2.553,6.484,6.757,6.954,11.419
		c0.464,4.671-1.222,9.295-4.575,12.577l-56.82,55.584c-3.235,3.166-4.92,7.593-4.607,12.104c0.316,4.523,2.585,8.671,6.232,11.363
		l13.282,9.821c3.539,2.617,5.797,6.62,6.202,11.001c0.409,4.381-1.074,8.733-4.068,11.954L4.141,408.317
		c-3.803,4.085-5.106,9.899-3.409,15.226c1.703,5.315,6.136,9.301,11.608,10.427h369.515c5.466-1.126,9.905-5.112,11.599-10.427
		c1.694-5.327,0.394-11.141-3.406-15.226L347.864,362.971z"/>
	<g>
		<path style="fill:#4EA172;" d="M390.048,408.317l-42.184-45.346c-2.994-3.22-4.474-7.573-4.067-11.954
			c0.406-4.381,2.657-8.384,6.197-11.001l13.288-9.821c3.643-2.692,5.919-6.841,6.232-11.363c0.308-4.512-1.369-8.939-4.607-12.104
			l-56.823-55.584c-3.348-3.282-5.031-7.906-4.572-12.577c0.47-4.662,3.023-8.866,6.957-11.419l3.4-2.214
			c4.009-2.608,6.591-6.925,6.98-11.694c0.388-4.773-1.457-9.455-4.996-12.681l-5.181-4.718L72.551,433.969h309.303
			c5.466-1.126,9.905-5.112,11.599-10.427C395.148,418.216,393.848,412.401,390.048,408.317z"/>
	</g>
</g>
</svg>